<mxfile host="app.diagrams.net" modified="2024-04-25T10:11:21.552Z" agent="Mozilla/5.0 (Windows NT 10.0; Win64; x64) AppleWebKit/537.36 (KHTML, like Gecko) Chrome/124.0.0.0 Safari/537.36" etag="pXZrsENoNbMxmkdxzktk" version="24.2.5" type="device">
  <diagram name="Страница-1" id="lXZr69fEtv8op0BBBUZE">
    <mxGraphModel dx="2074" dy="1098" grid="1" gridSize="10" guides="1" tooltips="1" connect="1" arrows="1" fold="1" page="1" pageScale="1" pageWidth="827" pageHeight="1169" math="0" shadow="0">
      <root>
        <mxCell id="0" />
        <mxCell id="1" parent="0" />
        <mxCell id="2w9o94J1kdJWiXFDAASa-1" value="RecipeService" style="rounded=0;whiteSpace=wrap;html=1;" vertex="1" parent="1">
          <mxGeometry x="10" y="20" width="810" height="60" as="geometry" />
        </mxCell>
        <mxCell id="2w9o94J1kdJWiXFDAASa-2" value="&lt;div&gt;Recipe:&lt;/div&gt;&lt;div&gt;-Id&lt;/div&gt;&lt;div&gt;-PostedBy&lt;/div&gt;&lt;div&gt;-Image&lt;/div&gt;&lt;div&gt;-Title&lt;/div&gt;&lt;div&gt;-Products - collection&lt;/div&gt;&lt;div&gt;-Preparation&lt;/div&gt;&lt;div&gt;-ApprovedBy - collection&lt;/div&gt;" style="rounded=0;whiteSpace=wrap;html=1;align=left;" vertex="1" parent="1">
          <mxGeometry x="80" y="160" width="160" height="130" as="geometry" />
        </mxCell>
        <mxCell id="2w9o94J1kdJWiXFDAASa-3" value="Product:&lt;div&gt;-Id&lt;/div&gt;&lt;div&gt;-Name&lt;/div&gt;&lt;div&gt;-Info&lt;/div&gt;&lt;div&gt;-Image&lt;/div&gt;" style="rounded=0;whiteSpace=wrap;html=1;align=left;" vertex="1" parent="1">
          <mxGeometry x="620" y="160" width="150" height="130" as="geometry" />
        </mxCell>
        <mxCell id="2w9o94J1kdJWiXFDAASa-7" value="" style="edgeStyle=orthogonalEdgeStyle;rounded=0;orthogonalLoop=1;jettySize=auto;html=1;" edge="1" parent="1" source="2w9o94J1kdJWiXFDAASa-4" target="2w9o94J1kdJWiXFDAASa-2">
          <mxGeometry relative="1" as="geometry">
            <Array as="points">
              <mxPoint x="270" y="225" />
              <mxPoint x="270" y="225" />
            </Array>
          </mxGeometry>
        </mxCell>
        <mxCell id="2w9o94J1kdJWiXFDAASa-8" value="" style="edgeStyle=orthogonalEdgeStyle;rounded=0;orthogonalLoop=1;jettySize=auto;html=1;" edge="1" parent="1" source="2w9o94J1kdJWiXFDAASa-4" target="2w9o94J1kdJWiXFDAASa-3">
          <mxGeometry relative="1" as="geometry" />
        </mxCell>
        <mxCell id="2w9o94J1kdJWiXFDAASa-4" value="RecipeProduct:&lt;div&gt;-RecipeId&lt;/div&gt;&lt;div&gt;-ProductId&lt;/div&gt;&lt;div&gt;-Quantity&lt;/div&gt;&lt;div&gt;-Portion&lt;/div&gt;" style="rounded=0;whiteSpace=wrap;html=1;align=left;" vertex="1" parent="1">
          <mxGeometry x="350" y="160" width="160" height="130" as="geometry" />
        </mxCell>
      </root>
    </mxGraphModel>
  </diagram>
</mxfile>
